ffmpeg version 4.1.3 Copyright (c) 2000-2019 the FFmpeg developers
  built with Apple LLVM version 10.0.1 (clang-1001.0.46.3)
  configuration: --prefix=/usr/local/Cellar/ffmpeg/4.1.3 --enable-shared --enable-pthreads --enable-version3 --enable-hardcoded-tables --enable-avresample --cc=clang --host-cflags='-I/Library/Java/JavaVirtualMachines/openjdk-12.jdk/Contents/Home/include -I/Library/Java/JavaVirtualMachines/openjdk-12.jdk/Contents/Home/include/darwin' --host-ldflags= --enable-ffplay --enable-gnutls --enable-gpl --enable-libaom --enable-libbluray --enable-libmp3lame --enable-libopus --enable-librubberband --enable-libsnappy --enable-libtesseract --enable-libtheora --enable-libvorbis --enable-libvpx --enable-libx264 --enable-libx265 --enable-libxvid --enable-lzma --enable-libfontconfig --enable-libfreetype --enable-frei0r --enable-libass --enable-libopencore-amrnb --enable-libopencore-amrwb --enable-libopenjpeg --enable-librtmp --enable-libspeex --enable-videotoolbox --disable-libjack --disable-indev=jack --enable-libaom --enable-libsoxr
  libavutil      56. 22.100 / 56. 22.100
  libavcodec     58. 35.100 / 58. 35.100
  libavformat    58. 20.100 / 58. 20.100
  libavdevice    58.  5.100 / 58.  5.100
  libavfilter     7. 40.101 /  7. 40.101
  libavresample   4.  0.  0 /  4.  0.  0
  libswscale      5.  3.100 /  5.  3.100
  libswresample   3.  3.100 /  3.  3.100
  libpostproc    55.  3.100 / 55.  3.100
Input #0, mov,mp4,m4a,3gp,3g2,mj2, from './video2.MP4':
  Metadata:
    major_brand     : MSNV
    minor_version   : 22675568
    compatible_brands: MSNVmp42isom
    creation_time   : 2019-05-04T14:27:27.000000Z
  Duration: 00:05:40.80, start: 0.000000, bitrate: 12129 kb/s
    Stream #0:0(und): Video: h264 (Main) (avc1 / 0x31637661), yuv420p(tv, bt709/bt709/iec61966-2-4), 1440x1080 [SAR 4:3 DAR 16:9], 11998 kb/s, 25 fps, 25 tbr, 25k tbn, 50 tbc (default)
    Metadata:
      creation_time   : 2019-05-04T14:27:27.000000Z
      handler_name    : Video Media Handler
      encoder         : AVC Coding
    Stream #0:1(und): Audio: aac (LC) (mp4a / 0x6134706D), 48000 Hz, stereo, fltp, 127 kb/s (default)
    Metadata:
      creation_time   : 2019-05-04T14:27:27.000000Z
      handler_name    : Sound Media Handler
Stream mapping:
  Stream #0:0 -> #0:0 (h264 (native) -> mjpeg (native))
Press [q] to stop, [?] for help
[swscaler @ 0x10dd41000] deprecated pixel format used, make sure you did set range correctly
Output #0, image2, to './test_1/%d.jpg':
  Metadata:
    major_brand     : MSNV
    minor_version   : 22675568
    compatible_brands: MSNVmp42isom
    encoder         : Lavf58.20.100
    Stream #0:0(und): Video: mjpeg, yuvj420p(pc), 1440x1080 [SAR 4:3 DAR 16:9], q=2-31, 200 kb/s, 24 fps, 24 tbn, 24 tbc (default)
    Metadata:
      creation_time   : 2019-05-04T14:27:27.000000Z
      handler_name    : Video Media Handler
      encoder         : Lavc58.35.100 mjpeg
    Side data:
      cpb: bitrate max/min/avg: 0/0/200000 buffer size: 0 vbv_delay: -1
frame=   50 fps=0.0 q=24.8 size=N/A time=00:00:02.08 bitrate=N/A speed=4.16x    frame=  108 fps=107 q=24.8 size=N/A time=00:00:04.50 bitrate=N/A speed=4.46x    frame=  168 fps=111 q=24.8 size=N/A time=00:00:07.00 bitrate=N/A speed=4.63x    frame=  228 fps=113 q=24.8 size=N/A time=00:00:09.50 bitrate=N/A speed=4.71x    frame=  274 fps=108 q=24.8 size=N/A time=00:00:11.41 bitrate=N/A speed=4.52x    frame=  314 fps=104 q=24.8 size=N/A time=00:00:13.08 bitrate=N/A speed=4.32x    frame=  372 fps=105 q=24.8 size=N/A time=00:00:15.50 bitrate=N/A speed=4.39x    frame=  426 fps=105 q=24.8 size=N/A time=00:00:17.75 bitrate=N/A speed=4.39x    frame=  461 fps=101 q=24.8 size=N/A time=00:00:19.20 bitrate=N/A speed=4.22x    frame=  513 fps=101 q=24.8 size=N/A time=00:00:21.37 bitrate=N/A speed=4.23x    frame=  574 fps=103 q=24.8 size=N/A time=00:00:23.91 bitrate=N/A speed= 4.3x    frame=  633 fps=104 q=24.8 size=N/A time=00:00:26.37 bitrate=N/A speed=4.35x    frame=  693 fps=105 q=24.8 size=N/A time=00:00:28.87 bitrate=N/A speed=4.39x    frame=  753 fps=106 q=24.8 size=N/A time=00:00:31.37 bitrate=N/A speed=4.43x    frame=  813 fps=107 q=24.8 size=N/A time=00:00:33.87 bitrate=N/A speed=4.47x    frame=  873 fps=108 q=24.8 size=N/A time=00:00:36.37 bitrate=N/A speed= 4.5x    frame=  933 fps=109 q=24.8 size=N/A time=00:00:38.87 bitrate=N/A speed=4.52x    frame=  994 fps=109 q=24.8 size=N/A time=00:00:41.41 bitrate=N/A speed=4.55x    frame= 1053 fps=110 q=24.8 size=N/A time=00:00:43.87 bitrate=N/A speed=4.57x    frame= 1111 fps=110 q=24.8 size=N/A time=00:00:46.29 bitrate=N/A speed=4.58x    frame= 1172 fps=110 q=24.8 size=N/A time=00:00:48.83 bitrate=N/A speed= 4.6x    frame= 1231 fps=111 q=24.8 size=N/A time=00:00:51.29 bitrate=N/A speed=4.62x    frame= 1290 fps=111 q=24.8 size=N/A time=00:00:53.75 bitrate=N/A speed=4.63x    frame= 1350 fps=111 q=24.8 size=N/A time=00:00:56.25 bitrate=N/A speed=4.64x    frame= 1410 fps=112 q=24.8 size=N/A time=00:00:58.75 bitrate=N/A speed=4.65x    frame= 1470 fps=112 q=24.8 size=N/A time=00:01:01.25 bitrate=N/A speed=4.67x    frame= 1529 fps=112 q=24.8 size=N/A time=00:01:03.70 bitrate=N/A speed=4.67x    frame= 1589 fps=112 q=24.8 size=N/A time=00:01:06.20 bitrate=N/A speed=4.68x    frame= 1650 fps=113 q=24.8 size=N/A time=00:01:08.75 bitrate=N/A speed= 4.7x    frame= 1711 fps=113 q=24.8 size=N/A time=00:01:11.29 bitrate=N/A speed=4.71x    frame= 1772 fps=113 q=24.8 size=N/A time=00:01:13.83 bitrate=N/A speed=4.72x    frame= 1831 fps=113 q=24.8 size=N/A time=00:01:16.29 bitrate=N/A speed=4.72x    frame= 1891 fps=114 q=24.8 size=N/A time=00:01:18.79 bitrate=N/A speed=4.73x    frame= 1951 fps=114 q=24.8 size=N/A time=00:01:21.29 bitrate=N/A speed=4.74x    frame= 2008 fps=114 q=24.8 size=N/A time=00:01:23.66 bitrate=N/A speed=4.74x    frame= 2068 fps=114 q=24.8 size=N/A time=00:01:26.16 bitrate=N/A speed=4.74x    frame= 2127 fps=114 q=24.8 size=N/A time=00:01:28.62 bitrate=N/A speed=4.74x    frame= 2188 fps=114 q=24.8 size=N/A time=00:01:31.16 bitrate=N/A speed=4.75x    frame= 2244 fps=114 q=24.8 size=N/A time=00:01:33.50 bitrate=N/A speed=4.75x    frame= 2305 fps=114 q=24.8 size=N/A time=00:01:36.04 bitrate=N/A speed=4.76x    frame= 2364 fps=114 q=24.8 size=N/A time=00:01:38.50 bitrate=N/A speed=4.76x    frame= 2424 fps=114 q=24.8 size=N/A time=00:01:41.00 bitrate=N/A speed=4.76x    frame= 2484 fps=114 q=24.8 size=N/A time=00:01:43.50 bitrate=N/A speed=4.77x    frame= 2544 fps=115 q=24.8 size=N/A time=00:01:46.00 bitrate=N/A speed=4.77x    frame= 2604 fps=115 q=24.8 size=N/A time=00:01:48.50 bitrate=N/A speed=4.78x    frame= 2663 fps=115 q=24.8 size=N/A time=00:01:50.95 bitrate=N/A speed=4.78x    frame= 2723 fps=115 q=24.8 size=N/A time=00:01:53.45 bitrate=N/A speed=4.78x    frame= 2784 fps=115 q=24.8 size=N/A time=00:01:56.00 bitrate=N/A speed=4.79x    frame= 2844 fps=115 q=24.8 size=N/A time=00:01:58.50 bitrate=N/A speed=4.79x    frame= 2906 fps=115 q=24.8 size=N/A time=00:02:01.08 bitrate=N/A speed= 4.8x    frame= 2967 fps=115 q=24.8 size=N/A time=00:02:03.62 bitrate=N/A speed= 4.8x    frame= 3021 fps=115 q=24.8 size=N/A time=00:02:05.87 bitrate=N/A speed= 4.8x    frame= 3078 fps=115 q=24.8 size=N/A time=00:02:08.25 bitrate=N/A speed= 4.8x    frame= 3137 fps=115 q=24.8 size=N/A time=00:02:10.70 bitrate=N/A speed= 4.8x    frame= 3197 fps=115 q=24.8 size=N/A time=00:02:13.20 bitrate=N/A speed= 4.8x    frame= 3256 fps=115 q=24.8 size=N/A time=00:02:15.66 bitrate=N/A speed= 4.8x    frame= 3315 fps=115 q=24.8 size=N/A time=00:02:18.12 bitrate=N/A speed= 4.8x    frame= 3376 fps=115 q=24.8 size=N/A time=00:02:20.66 bitrate=N/A speed=4.81x    frame= 3437 fps=115 q=24.8 size=N/A time=00:02:23.20 bitrate=N/A speed=4.81x    frame= 3498 fps=116 q=24.8 size=N/A time=00:02:25.75 bitrate=N/A speed=4.82x    frame= 3558 fps=116 q=24.8 size=N/A time=00:02:28.25 bitrate=N/A speed=4.82x    frame= 3617 fps=116 q=24.8 size=N/A time=00:02:30.70 bitrate=N/A speed=4.82x    frame= 3677 fps=116 q=24.8 size=N/A time=00:02:33.20 bitrate=N/A speed=4.82x    frame= 3737 fps=116 q=24.8 size=N/A time=00:02:35.70 bitrate=N/A speed=4.82x    frame= 3797 fps=116 q=24.8 size=N/A time=00:02:38.20 bitrate=N/A speed=4.83x    frame= 3856 fps=116 q=24.8 size=N/A time=00:02:40.66 bitrate=N/A speed=4.83x    frame= 3916 fps=116 q=24.8 size=N/A time=00:02:43.16 bitrate=N/A speed=4.83x    frame= 3977 fps=116 q=24.8 size=N/A time=00:02:45.70 bitrate=N/A speed=4.83x    frame= 4038 fps=116 q=24.8 size=N/A time=00:02:48.25 bitrate=N/A speed=4.84x    frame= 4099 fps=116 q=24.8 size=N/A time=00:02:50.79 bitrate=N/A speed=4.84x    frame= 4160 fps=116 q=24.8 size=N/A time=00:02:53.33 bitrate=N/A speed=4.84x    frame= 4210 fps=116 q=24.8 size=N/A time=00:02:55.41 bitrate=N/A speed=4.83x    frame= 4242 fps=115 q=24.8 size=N/A time=00:02:56.75 bitrate=N/A speed= 4.8x    frame= 4297 fps=115 q=24.8 size=N/A time=00:02:59.04 bitrate=N/A speed= 4.8x    frame= 4355 fps=115 q=24.8 size=N/A time=00:03:01.45 bitrate=N/A speed= 4.8x    frame= 4394 fps=115 q=24.8 size=N/A time=00:03:03.08 bitrate=N/A speed=4.77x    frame= 4446 fps=114 q=24.8 size=N/A time=00:03:05.25 bitrate=N/A speed=4.77x    frame= 4486 fps=114 q=24.8 size=N/A time=00:03:06.91 bitrate=N/A speed=4.75x    frame= 4524 fps=113 q=24.8 size=N/A time=00:03:08.50 bitrate=N/A speed=4.73x    frame= 4577 fps=113 q=24.8 size=N/A time=00:03:10.70 bitrate=N/A speed=4.72x    frame= 4625 fps=113 q=24.8 size=N/A time=00:03:12.70 bitrate=N/A speed=4.71x    frame= 4672 fps=113 q=24.8 size=N/A time=00:03:14.66 bitrate=N/A speed= 4.7x    frame= 4723 fps=113 q=24.8 size=N/A time=00:03:16.79 bitrate=N/A speed= 4.7x    frame= 4774 fps=113 q=24.8 size=N/A time=00:03:18.91 bitrate=N/A speed=4.69x    frame= 4816 fps=112 q=24.8 size=N/A time=00:03:20.66 bitrate=N/A speed=4.68x    frame= 4867 fps=112 q=24.8 size=N/A time=00:03:22.79 bitrate=N/A speed=4.67x    frame= 4926 fps=112 q=24.8 size=N/A time=00:03:25.25 bitrate=N/A speed=4.67x    frame= 4982 fps=112 q=24.8 size=N/A time=00:03:27.58 bitrate=N/A speed=4.67x    frame= 5042 fps=112 q=24.8 size=N/A time=00:03:30.08 bitrate=N/A speed=4.68x    frame= 5103 fps=112 q=24.8 size=N/A time=00:03:32.62 bitrate=N/A speed=4.68x    frame= 5163 fps=112 q=24.8 size=N/A time=00:03:35.12 bitrate=N/A speed=4.68x    frame= 5223 fps=112 q=24.8 size=N/A time=00:03:37.62 bitrate=N/A speed=4.69x    frame= 5283 fps=113 q=24.8 size=N/A time=00:03:40.12 bitrate=N/A speed=4.69x    frame= 5343 fps=113 q=24.8 size=N/A time=00:03:42.62 bitrate=N/A speed=4.69x    frame= 5403 fps=113 q=24.8 size=N/A time=00:03:45.12 bitrate=N/A speed=4.69x    frame= 5463 fps=113 q=24.8 size=N/A time=00:03:47.62 bitrate=N/A speed= 4.7x    frame= 5523 fps=113 q=24.8 size=N/A time=00:03:50.12 bitrate=N/A speed= 4.7x    frame= 5579 fps=113 q=24.8 size=N/A time=00:03:52.45 bitrate=N/A speed= 4.7x    frame= 5638 fps=113 q=24.8 size=N/A time=00:03:54.91 bitrate=N/A speed= 4.7x    frame= 5699 fps=113 q=24.8 size=N/A time=00:03:57.45 bitrate=N/A speed=4.71x    frame= 5755 fps=113 q=24.8 size=N/A time=00:03:59.79 bitrate=N/A speed= 4.7x    frame= 5813 fps=113 q=24.8 size=N/A time=00:04:02.20 bitrate=N/A speed= 4.7x    frame= 5868 fps=113 q=24.8 size=N/A time=00:04:04.50 bitrate=N/A speed= 4.7x    frame= 5924 fps=113 q=24.8 size=N/A time=00:04:06.83 bitrate=N/A speed= 4.7x    frame= 5978 fps=113 q=24.8 size=N/A time=00:04:09.08 bitrate=N/A speed= 4.7x    frame= 6034 fps=113 q=24.8 size=N/A time=00:04:11.41 bitrate=N/A speed= 4.7x    frame= 6093 fps=113 q=24.8 size=N/A time=00:04:13.87 bitrate=N/A speed= 4.7x    frame= 6154 fps=113 q=24.8 size=N/A time=00:04:16.41 bitrate=N/A speed= 4.7x    frame= 6212 fps=113 q=24.8 size=N/A time=00:04:18.83 bitrate=N/A speed= 4.7x    frame= 6269 fps=113 q=24.8 size=N/A time=00:04:21.20 bitrate=N/A speed= 4.7x    frame= 6323 fps=113 q=24.8 size=N/A time=00:04:23.45 bitrate=N/A speed= 4.7x    frame= 6377 fps=113 q=24.8 size=N/A time=00:04:25.70 bitrate=N/A speed= 4.7x    frame= 6435 fps=113 q=24.8 size=N/A time=00:04:28.12 bitrate=N/A speed= 4.7x    frame= 6492 fps=113 q=24.8 size=N/A time=00:04:30.50 bitrate=N/A speed= 4.7x    frame= 6549 fps=113 q=24.8 size=N/A time=00:04:32.87 bitrate=N/A speed= 4.7x    frame= 6605 fps=113 q=24.8 size=N/A time=00:04:35.20 bitrate=N/A speed= 4.7x    frame= 6660 fps=113 q=24.8 size=N/A time=00:04:37.50 bitrate=N/A speed= 4.7x    frame= 6701 fps=112 q=24.8 size=N/A time=00:04:39.20 bitrate=N/A speed=4.69x    frame= 6746 fps=112 q=24.8 size=N/A time=00:04:41.08 bitrate=N/A speed=4.68x    frame= 6788 fps=112 q=24.8 size=N/A time=00:04:42.83 bitrate=N/A speed=4.67x    frame= 6837 fps=112 q=24.8 size=N/A time=00:04:44.87 bitrate=N/A speed=4.66x    frame= 6891 fps=112 q=24.8 size=N/A time=00:04:47.12 bitrate=N/A speed=4.66x    frame= 6941 fps=112 q=24.8 size=N/A time=00:04:49.20 bitrate=N/A speed=4.66x    frame= 6986 fps=112 q=24.8 size=N/A time=00:04:51.08 bitrate=N/A speed=4.65x    frame= 7042 fps=112 q=24.8 size=N/A time=00:04:53.41 bitrate=N/A speed=4.65x    frame= 7097 fps=112 q=24.8 size=N/A time=00:04:55.70 bitrate=N/A speed=4.65x    frame= 7149 fps=112 q=24.8 size=N/A time=00:04:57.87 bitrate=N/A speed=4.65x    frame= 7204 fps=111 q=24.8 size=N/A time=00:05:00.16 bitrate=N/A speed=4.65x    frame= 7257 fps=111 q=24.8 size=N/A time=00:05:02.37 bitrate=N/A speed=4.64x    frame= 7312 fps=111 q=24.8 size=N/A time=00:05:04.66 bitrate=N/A speed=4.64x    frame= 7359 fps=111 q=24.8 size=N/A time=00:05:06.62 bitrate=N/A speed=4.64x    frame= 7394 fps=111 q=24.8 size=N/A time=00:05:08.08 bitrate=N/A speed=4.62x    frame= 7437 fps=111 q=24.8 size=N/A time=00:05:09.87 bitrate=N/A speed=4.62x    frame= 7493 fps=111 q=24.8 size=N/A time=00:05:12.20 bitrate=N/A speed=4.62x    frame= 7552 fps=111 q=24.8 size=N/A time=00:05:14.66 bitrate=N/A speed=4.62x    frame= 7603 fps=111 q=24.8 size=N/A time=00:05:16.79 bitrate=N/A speed=4.61x    frame= 7657 fps=111 q=24.8 size=N/A time=00:05:19.04 bitrate=N/A speed=4.61x    frame= 7714 fps=111 q=24.8 size=N/A time=00:05:21.41 bitrate=N/A speed=4.61x    frame= 7770 fps=111 q=24.8 size=N/A time=00:05:23.75 bitrate=N/A speed=4.61x    frame= 7811 fps=111 q=24.8 size=N/A time=00:05:25.45 bitrate=N/A speed= 4.6x    frame= 7849 fps=110 q=24.8 size=N/A time=00:05:27.04 bitrate=N/A speed=4.59x    frame= 7892 fps=110 q=24.8 size=N/A time=00:05:28.83 bitrate=N/A speed=4.59x    frame= 7943 fps=110 q=24.8 size=N/A time=00:05:30.95 bitrate=N/A speed=4.58x    frame= 7988 fps=110 q=24.8 size=N/A time=00:05:32.83 bitrate=N/A speed=4.58x    frame= 8037 fps=110 q=24.8 size=N/A time=00:05:34.87 bitrate=N/A speed=4.57x    frame= 8095 fps=110 q=24.8 size=N/A time=00:05:37.29 bitrate=N/A speed=4.58x    frame= 8150 fps=110 q=24.8 size=N/A time=00:05:39.58 bitrate=N/A speed=4.58x    frame= 8179 fps=110 q=24.8 Lsize=N/A time=00:05:40.79 bitrate=N/A speed=4.58x    
video:251114kB audio:0kB subtitle:0kB other streams:0kB global headers:0kB muxing overhead: unknown
